<svg width="42" height="42" viewBox="0 0 42 42" fill="none" xmlns="http://www.w3.org/2000/svg">
<rect width="42" height="42" rx="10" fill="#6115CD"/>
<path fill-rule="evenodd" clip-rule="evenodd" d="M21 31C26.5228 31 31 26.5228 31 21C31 15.4772 26.5228 11 21 11C15.4772 11 11 15.4772 11 21C11 26.5228 15.4772 31 21 31ZM21.0003 15C21.2774 15 21.5004 15.2508 21.5004 15.5625H21.5025V16.7203C22.0714 16.7859 22.6027 16.9102 22.9924 17.0133C23.2612 17.0859 23.4279 17.3883 23.3633 17.6906C23.2987 17.993 23.0299 18.1805 22.7611 18.1078C22.1193 17.9391 21.1857 17.7422 20.3876 17.8148C19.9917 17.85 19.6708 17.9508 19.4436 18.1125C19.2332 18.2625 19.0831 18.4781 19.0227 18.825C18.9768 19.0992 19.0081 19.275 19.0644 19.3992C19.1227 19.5328 19.2332 19.6641 19.4207 19.7953C19.8187 20.0742 20.4168 20.25 21.1232 20.4516L21.1711 20.4656C21.8171 20.6508 22.5611 20.8641 23.107 21.2437C23.3967 21.4453 23.6655 21.7172 23.8322 22.0922C24.001 22.4766 24.0406 22.9102 23.9593 23.3859C23.8176 24.2156 23.28 24.757 22.6152 25.0406C22.2797 25.1836 21.9026 25.268 21.5004 25.2984V26.4375C21.5004 26.7492 21.2774 27 21.0003 27C20.7231 27 20.5001 26.7492 20.5001 26.4375V25.2703C20.4314 25.2633 20.3626 25.2539 20.2938 25.2422H20.2918C19.7729 25.1578 18.8539 24.9187 18.2975 24.6422C18.0454 24.5156 17.9308 24.1828 18.0433 23.8992C18.1558 23.6156 18.4517 23.4867 18.7039 23.6133C19.1456 23.8336 19.9625 24.0539 20.4335 24.1313C21.1753 24.2484 21.8088 24.1852 22.2589 23.993C22.6986 23.8055 22.9174 23.5195 22.9778 23.175C23.0237 22.9008 22.9924 22.725 22.9362 22.6008C22.8778 22.4672 22.7674 22.3359 22.5798 22.2047C22.1818 21.9258 21.5837 21.75 20.8773 21.5484L20.8294 21.5344C20.1834 21.3492 19.4395 21.1359 18.8935 20.7563C18.6038 20.5547 18.335 20.2828 18.1683 19.9078C17.9995 19.5234 17.9599 19.0898 18.0412 18.6141C18.1558 17.9531 18.4726 17.475 18.906 17.1656C19.3228 16.868 19.8229 16.7391 20.3063 16.6945C20.3709 16.6875 20.4355 16.6828 20.5001 16.6805V15.5625C20.5001 15.2508 20.7231 15 21.0003 15Z" fill="white"/>
</svg>
